<svg version="1.1" viewBox="0.0 0.0 1082.9002624671916 228.5564304461942" fill="none" stroke="none" stroke-linecap="square" stroke-miterlimit="10" xmlns:xlink="http://www.w3.org/1999/xlink" xmlns="http://www.w3.org/2000/svg"><clipPath id="p.0"><path d="m0 0l1082.9003 0l0 228.55643l-1082.9003 0l0 -228.55643z" clip-rule="nonzero"/></clipPath><g clip-path="url(#p.0)"><path fill="#000000" fill-opacity="0.0" d="m0 0l1082.9003 0l0 228.55643l-1082.9003 0z" fill-rule="evenodd"/><path fill="#000000" fill-opacity="0.0" d="m0 0l1054.0157 0l0 207.62204l-1054.0157 0z" fill-rule="evenodd"/><path fill="#1155cc" d="m69.89264 152.4829q-3.0625 0 -5.0 -1.9375q-1.9375 -1.9375 -1.9375 -5.0l0 -76.265625l-26.65625 0q-6.40625 0 -6.40625 -5.734375q0 -2.796875 1.65625 -4.265625q1.671875 -1.46875 4.75 -1.46875l67.1875 0q3.078125 0 4.734375 1.46875q1.671875 1.46875 1.671875 4.265625q0 5.734375 -6.40625 5.734375l-26.65625 0l0 76.265625q0 3.0625 -1.875 5.0q-1.859375 1.9375 -5.0625 1.9375zm124.66356 -9.203125q1.203125 1.734375 1.203125 3.734375q0 2.390625 -1.9375 4.0625q-1.9375 1.671875 -4.46875 1.671875q-3.734375 0 -6.0 -3.34375l-17.859375 -27.71875q-3.078125 -4.8125 -6.546875 -6.734375q-3.453125 -1.9375 -9.0625 -1.9375l-15.0625 0l0 32.53125q0 3.203125 -1.796875 5.078125q-1.796875 1.859375 -5.0 1.859375q-3.0625 0 -4.9375 -1.859375q-1.859375 -1.875 -1.859375 -5.078125l0 -81.0625q0 -3.0625 1.796875 -4.859375q1.796875 -1.8125 5.0 -1.8125l33.203125 0q15.59375 0 23.796875 6.9375q8.203125 6.9375 8.203125 20.265625q0 11.0625 -6.28125 17.9375q-6.265625 6.859375 -17.859375 8.734375q3.46875 0.921875 6.265625 3.328125q2.796875 2.390625 5.46875 6.671875l13.734375 21.59375zm-34.9375 -41.328125q10.40625 0 15.40625 -4.0625q5.0 -4.078125 5.0 -12.609375q0 -8.53125 -4.9375 -12.46875q-4.9375 -3.9375 -15.46875 -3.9375l-24.921875 0l0 33.078125l24.921875 0zm136.52773 41.859375q0.671875 1.59375 0.671875 2.671875q0 2.53125 -2.078125 4.265625q-2.0625 1.734375 -4.59375 1.734375q-1.734375 0 -3.265625 -1.0q-1.53125 -1.0 -2.328125 -2.875l-8.796875 -20.0l-48.79689 0l-8.8125 20.0q-0.796875 1.875 -2.40625 2.875q-1.59375 1.0 -3.3125 1.0q-2.671875 0 -4.75 -1.734375q-2.0625 -1.734375 -2.0625 -4.265625q0 -1.078125 0.671875 -2.671875l37.59375 -82.265625q0.9375 -2.125 3.0 -3.328125q2.078125 -1.203125 4.34375 -1.203125q2.265625 0 4.328125 1.203125q2.0625153 1.203125 3.0000153 3.328125l37.59375 82.265625zm-64.26564 -26.125l39.062515 0l-19.593765 -44.140625l-19.46875 44.140625zm149.8629 -60.53125q2.9375 0 4.734375 1.9375q1.796875 1.921875 1.796875 4.984375l0 81.46875q0 3.0625 -1.875 5.0q-1.859375 1.9375 -4.78125 1.9375q-3.46875 0 -5.34375 -2.671875l-52.265625 -68.9375l0 64.671875q0 3.0625 -1.796875 5.0q-1.796875 1.9375 -4.734375 1.9375q-2.921875 0 -4.65625 -1.859375q-1.734375 -1.875 -1.734375 -5.078125l0 -81.46875q0 -3.0625 1.859375 -4.984375q1.875 -1.9375 4.796875 -1.9375q3.46875 0 5.34375 2.65625l52.265625 69.0625l0 -64.796875q0 -3.0625 1.71875 -4.984375q1.734375 -1.9375 4.671875 -1.9375zm59.469086 95.71875q-10.140625 0 -19.28125 -2.796875q-9.125 -2.796875 -14.578125 -7.734375q-2.546875 -2.125 -2.546875 -5.46875q0 -2.390625 1.328125 -4.0625q1.34375 -1.671875 3.21875 -1.671875q1.859375 0 4.53125 1.734375q11.859375 8.796875 27.0625 8.796875q10.65625 0 16.390625 -3.984375q5.734375 -4.0 5.734375 -11.46875q0 -5.875 -5.328125 -8.796875q-5.328125 -2.9375 -17.0625 -5.609375q-11.203125 -2.390625 -18.40625 -5.453125q-7.203125 -3.078125 -11.265625 -8.34375q-4.0625 -5.265625 -4.0625 -13.40625q0 -8.125 4.46875 -14.453125q4.46875 -6.34375 12.46875 -9.875q8.0 -3.53125 18.265625 -3.53125q9.453125 0 17.453125 2.671875q8.0 2.65625 13.609375 7.859375q2.65625 2.265625 2.65625 5.46875q0 2.265625 -1.40625 4.0q-1.390625 1.734375 -3.25 1.734375q-1.734375 0 -4.40625 -1.734375q-6.125 -4.671875 -11.53125 -6.734375q-5.390625 -2.0625 -13.0 -2.0625q-10.265625 0 -16.0 4.203125q-5.734375 4.1875 -5.734375 11.65625q0 6.40625 5.0625 9.671875q5.078125 3.265625 16.28125 5.9375q11.71875 2.65625 18.984375 5.53125q7.28125 2.859375 11.609375 7.859375q4.328125 5.0 4.328125 12.875q0 8.0 -4.46875 14.203125q-4.46875 6.1875 -12.53125 9.59375q-8.0625 3.390625 -18.59375 3.390625z" fill-rule="nonzero"/><path fill="#000000" d="m531.0752 152.87352q-18.40625 0 -27.875 -9.59375q-9.453125 -9.59375 -9.453125 -28.265625l0 -52.265625q0 -2.53125 1.453125 -4.0625q1.46875 -1.53125 4.015625 -1.53125q2.390625 0 3.859375 1.53125q1.46875 1.53125 1.46875 4.0625l0 53.203125q0 13.734375 6.734375 20.671875q6.734375 6.921875 19.796875 6.921875q13.0625 0 19.71875 -6.921875q6.671875 -6.9375 6.671875 -20.671875l0 -53.203125q0 -2.53125 1.53125 -4.0625q1.546875 -1.53125 3.9375 -1.53125q2.53125 0 4.0 1.53125q1.46875 1.53125 1.46875 4.0625l0 52.265625q0 18.53125 -9.53125 28.203125q-9.53125 9.65625 -27.796875 9.65625zm65.32648 -0.390625q-2.53125 0 -4.0 -1.53125q-1.46875 -1.546875 -1.46875 -4.078125l0 -83.71875q0 -2.40625 1.53125 -3.875q1.546875 -1.46875 4.078125 -1.46875l31.59375 0q14.796875 0 23.0 7.203125q8.203125 7.203125 8.203125 20.40625q0 13.1875 -8.265625 20.53125q-8.265625 7.328125 -22.9375 7.328125l-26.265625 0l0 33.59375q0 2.53125 -1.46875 4.078125q-1.46875 1.53125 -4.0 1.53125zm30.671875 -48.265625q21.46875 0 21.46875 -18.796875q0 -18.546875 -21.46875 -18.546875l-25.203125 0l0 37.34375l25.203125 0zm55.32483 48.265625q-2.53125 0 -4.0 -1.53125q-1.46875 -1.546875 -1.46875 -4.078125l0 -83.71875q0 -2.40625 1.53125 -3.875q1.546875 -1.46875 4.078125 -1.46875l31.59375 0q14.796875 0 23.0 7.203125q8.203125 7.203125 8.203125 20.40625q0 13.1875 -8.265625 20.53125q-8.265625 7.328125 -22.9375 7.328125l-26.265625 0l0 33.59375q0 2.53125 -1.46875 4.078125q-1.46875 1.53125 -4.0 1.53125zm30.671875 -48.265625q21.46875 0 21.46875 -18.796875q0 -18.546875 -21.46875 -18.546875l-25.203125 0l0 37.34375l25.203125 0zm89.19983 48.65625q-13.078125 0 -22.75 -5.859375q-9.65625 -5.875 -14.859375 -16.671875q-5.1875 -10.796875 -5.1875 -25.46875q0 -14.796875 5.125 -25.65625q5.140625 -10.875 14.796875 -16.671875q9.671875 -5.796875 22.875 -5.796875q13.1875 0 22.859375 5.796875q9.671875 5.796875 14.796875 16.671875q5.140625 10.859375 5.140625 25.53125q0 14.65625 -5.203125 25.53125q-5.203125 10.859375 -14.875 16.734375q-9.65625 5.859375 -22.71875 5.859375zm0 -9.328125q14.921875 0 23.25 -10.0625q8.34375 -10.078125 8.34375 -28.734375q0 -18.671875 -8.265625 -28.671875q-8.265625 -10.0 -23.328125 -10.0q-14.9375 0 -23.28125 10.078125q-8.328125 10.0625 -8.328125 28.59375q0 18.53125 8.328125 28.671875q8.34375 10.125 23.28125 10.125zm134.25336 1.46875q0.9375 1.46875 0.9375 3.0625q0 2.0 -1.53125 3.265625q-1.53125 1.265625 -3.53125 1.265625q-3.078125 0 -4.8125 -2.65625l-17.859375 -28.265625q-3.46875 -5.46875 -7.203125 -7.53125q-3.734375 -2.078125 -10.125 -2.078125l-16.796875 0l0 34.796875q0 2.53125 -1.46875 4.078125q-1.46875 1.53125 -3.875 1.53125q-2.53125 0 -4.0 -1.53125q-1.46875 -1.546875 -1.46875 -4.078125l0 -83.71875q0 -2.40625 1.53125 -3.875q1.546875 -1.46875 4.078125 -1.46875l33.0625 0q15.328125 0 23.390625 6.8125q8.078125 6.796875 8.078125 19.984375q0 11.203125 -6.46875 18.015625q-6.46875 6.796875 -18.46875 8.25q3.328125 1.078125 6.0 3.484375q2.671875 2.390625 5.328125 6.65625l15.203125 24.0zm-34.0 -42.0q10.9375 0 16.328125 -4.53125q5.40625 -4.53125 5.40625 -13.734375q0 -9.0625 -5.34375 -13.46875q-5.328125 -4.40625 -16.390625 -4.40625l-26.921875 0l0 36.140625l26.921875 0zm81.994385 49.46875q-2.53125 0 -4.0625 -1.53125q-1.53125 -1.546875 -1.53125 -4.078125l0 -79.71875l-28.671875 0q-2.390625 0 -3.734375 -1.203125q-1.328125 -1.203125 -1.328125 -3.46875q0 -2.265625 1.328125 -3.46875q1.34375 -1.203125 3.734375 -1.203125l68.40625 0q2.390625 0 3.71875 1.203125q1.34375 1.203125 1.34375 3.46875q0 2.265625 -1.34375 3.46875q-1.328125 1.203125 -3.71875 1.203125l-28.671875 0l0 79.71875q0 2.53125 -1.46875 4.078125q-1.46875 1.53125 -4.0 1.53125z" fill-rule="nonzero"/></g></svg>